Coordinates
version=1
nRows=16
nColumns=33
inDegrees=yes

Units are S.I. units (second, meters, Newtons, ...)
Angles are in degrees.

endheader
time	ground_thorax_rot_x	ground_thorax_rot_y	ground_thorax_rot_z	ground_thorax_tx	ground_thorax_ty	ground_thorax_tz	clav_prot_r	clav_elev_r	scapula_abduction_r	scapula_elevation_r	scapula_upward_rot_r	scapula_winging_r	shoulder_elv_r	plane_of_elev_r	axial_rot_r	elbow_flexion_r	pro_sup_r	wrist_flex_r	wrist_dev_r	clav_prot_l	clav_elev_l	scapula_abduction_l	scapula_elevation_l	scapula_upward_rot_l	scapula_winging_l	shoulder_elv_l	plane_of_elev_l	axial_rot_l	elbow_flexion_l	pro_sup_l	wrist_flex_l	wrist_dev_l
      2.28000000	     25.18100277	     37.76420925	     51.21037623	     84.61891501	    783.28779053	    -47.02696097	     13.11665007	     36.68397010	     29.39595371	     45.00000000	    -45.00000000	  -5120.23698881	  -1730.35273553	     20.82855803	   -161.72398557	   1801.19613105	   -191.69802045	     11.25608757	     12.27203716	    -14.81099060	    -45.00000000	    -33.09759436	     45.00000000	    -45.00000000	  -3862.90261464	  -1895.13035089	    136.00294349	   -129.05378158	    349.26690231	   -314.75775394	     12.11590858	    -14.58660090
      2.29000000	     25.00813462	     37.66076078	     51.35196212	     85.53514624	    782.87382336	    -46.97829570	     13.33423739	     36.50617438	     29.31910317	     45.00000000	    -45.00000000	  -5120.08467218	  -1730.25665346	     20.73131477	   -161.83321364	   1801.23330064	   -191.48117894	     11.30772235	     12.32088805	    -14.84792953	    -45.00000000	    -32.99213326	     45.00000000	    -45.00000000	  -3862.96977685	  -1895.10155779	    136.18694326	   -129.76841754	    349.50153634	   -314.47111362	     12.08241065	    -14.54763650
      2.30000000	     24.92247691	     37.56783656	     51.39935056	     86.21079165	    782.56798343	    -46.91152980	     13.27067305	     36.56203319	     29.27864514	     45.00000000	    -45.00000000	  -5120.08550703	  -1730.15923439	     20.72126036	   -161.67426102	   1801.28616570	   -191.43884263	     11.55491374	     12.19267044	    -14.86498420	    -45.00000000	    -33.06119313	     45.00000000	    -45.00000000	  -3863.06106842	  -1895.16660515	    136.36011663	   -130.11160062	    349.62169430	   -314.28293663	     11.52441158	    -14.54469784
      2.31000000	     24.90634469	     37.39756806	     51.37132219	     86.66020866	    782.35818569	    -46.82313323	     13.31364267	     36.51627965	     29.38738287	     45.00000000	    -45.00000000	  -5120.14157890	  -1730.15478822	     20.77514851	   -161.54437845	   1801.42397929	   -191.45577584	     11.39509414	     12.29134435	    -14.82463871	    -45.00000000	    -32.99901662	     45.00000000	    -45.00000000	  -3862.84495101	  -1895.05253209	    136.16075231	   -130.29347064	    349.75124448	   -314.07731100	     11.79684298	    -14.75516201
      2.32000000	     24.85096736	     37.28441596	     51.32987585	     86.89463936	    782.23418503	    -46.71150271	     13.29744677	     36.59471584	     29.39469815	     45.00000000	    -45.00000000	  -5120.19621708	  -1730.12655716	     20.73900955	   -161.43112414	   1801.44951920	   -191.58099460	     11.54009879	     12.22294052	    -14.86663530	    -45.00000000	    -33.05275607	     45.00000000	    -45.00000000	  -3862.95019988	  -1894.96327361	    136.25582757	   -130.47432898	    349.84421391	   -313.81160085	     11.38032291	    -14.76767779
      2.33000000	     24.93222428	     37.11969009	     51.10757699	     86.92571919	    782.18761367	    -46.57862897	     13.32912582	     36.57861023	     29.43059454	     45.00000000	    -45.00000000	  -5120.23211370	  -1730.06303124	     20.75193323	   -161.27149016	   1801.48987500	   -191.71478823	     11.75451960	     12.06723545	    -14.82094174	    -45.00000000	    -33.23935539	     45.00000000	    -45.00000000	  -3862.94854002	  -1895.08284663	    136.26738562	   -130.69124425	    350.04798955	   -313.58357504	     10.99208055	    -14.85517095
      2.34000000	     24.83556989	     36.98943287	     51.24110402	     86.76656705	    782.20664247	    -46.41674448	     13.32247832	     36.65644268	     29.54545602	     45.00000000	    -45.00000000	  -5120.39733372	  -1730.01996230	     20.77178800	   -161.12648111	   1801.51450872	   -191.80463233	     11.56250160	     12.23602730	    -14.79975554	    -45.00000000	    -33.05298482	     45.00000000	    -45.00000000	  -3862.87684758	  -1894.71103825	    136.16723564	   -130.71187779	    350.01860713	   -313.25475530	     11.12843272	    -14.99397148
      2.35000000	     25.05069272	     36.85894599	     50.88575364	     86.42427476	    782.28421678	    -46.23383146	     13.33032974	     36.60413812	     29.65261711	     45.00000000	    -45.00000000	  -5120.47877822	  -1729.89401616	     20.67683627	   -160.94619620	   1801.53764646	   -191.96289814	     11.93233465	     11.93301914	    -14.77291898	    -45.00000000	    -33.42620198	     45.00000000	    -45.00000000	  -3862.89431817	  -1894.95379870	    136.27309502	   -130.92389888	    350.22589385	   -312.88755102	     10.59051073	    -15.04039068
      2.36000000	     24.96441340	     36.67735996	     50.94240110	     85.90522852	    782.40853444	    -46.02792824	     13.35646678	     36.67166159	     29.70566883	     45.00000000	    -45.00000000	  -5120.64267132	  -1729.88518520	     20.74885459	   -160.73968167	   1801.47796157	   -192.01100832	     11.74030277	     12.09359752	    -14.77311299	    -45.00000000	    -33.37979190	     45.00000000	    -45.00000000	  -3862.82923388	  -1894.60835744	    136.22215249	   -130.92184929	    350.29524278	   -312.42003982	     10.67978301	    -15.18494888
      2.37000000	     25.11068420	     36.54858064	     50.66394222	     85.22062971	    782.56548628	    -45.80244586	     13.33941681	     36.65955749	     29.80596780	     45.00000000	    -45.00000000	  -5120.74473785	  -1729.84586206	     20.65668046	   -160.50993517	   1801.53915188	   -192.07215993	     11.94714592	     11.96070235	    -14.67469594	    -45.00000000	    -33.47234157	     45.00000000	    -45.00000000	  -3862.82556555	  -1894.59197635	    136.17969965	   -131.02987674	    350.44084397	   -311.92965510	     10.32931332	    -15.30421447
      2.38000000	     25.20860572	     36.36582094	     50.52321065	     84.37694953	    782.74185698	    -45.56028169	     13.35688447	     36.70636895	     29.84975330	     45.00000000	    -45.00000000	  -5120.90699467	  -1729.72968697	     20.75681717	   -160.25444174	   1801.50956285	   -192.03760031	     11.85526701	     11.99357617	    -14.69863215	    -45.00000000	    -33.57970079	     45.00000000	    -45.00000000	  -3862.73479806	  -1894.46984230	    136.17707214	   -131.05448952	    350.51937399	   -311.39502955	     10.31067054	    -15.42182810
      2.39000000	     25.26506971	     36.20290374	     50.33679430	     83.37524967	    782.92617851	    -45.30337693	     13.31152629	     36.76506465	     29.92369978	     45.00000000	    -45.00000000	  -5120.98921684	  -1729.65326233	     20.64623462	   -159.88658129	   1801.49515495	   -191.94907715	     11.99317763	     11.92404234	    -14.61985813	    -45.00000000	    -33.66131066	     45.00000000	    -45.00000000	  -3862.81583811	  -1894.35580554	    136.21181855	   -131.04384310	    350.70620476	   -310.81420033	     10.09268109	    -15.53397478
      2.40000000	     25.44027031	     35.97116382	     50.04589626	     82.22745380	    783.10711182	    -45.03808378	     13.26184978	     36.86833068	     30.01763147	     45.00000000	    -45.00000000	  -5121.09201452	  -1729.56673530	     20.68731387	   -159.53762968	   1801.49097604	   -191.78774060	     12.00700471	     11.90949907	    -14.61478092	    -45.00000000	    -33.82752500	     45.00000000	    -45.00000000	  -3862.75399190	  -1894.31095150	    136.20003089	   -131.05960558	    350.78717797	   -310.24059667	      9.99468051	    -15.64704680
      2.41000000	     25.48621890	     35.84888552	     49.97380282	     80.93675173	    783.27729200	    -44.76796897	     13.29758946	     36.82189959	     30.01159958	     45.00000000	    -45.00000000	  -5121.29461152	  -1729.42792540	     20.66848330	   -159.27898741	   1801.43969955	   -191.57249776	     12.07696946	     11.87347963	    -14.55315393	    -45.00000000	    -33.86442165	     45.00000000	    -45.00000000	  -3862.73428345	  -1894.20885293	    136.19772482	   -131.06710864	    350.91001072	   -309.66501615	      9.89743368	    -15.74462673
      2.42000000	     25.74156852	     35.57656202	     49.45070948	     79.51482134	    783.43086268	    -44.49871888	     13.17994624	     37.04167756	     30.01203630	     45.00000000	    -45.00000000	  -5121.23011120	  -1729.29500741	     20.70205501	   -158.77407196	   1801.56662928	   -191.25094110	     12.05386351	     11.87490520	    -14.55232979	    -45.00000000	    -34.11597234	     45.00000000	    -45.00000000	  -3862.79418983	  -1894.22926227	    136.17273925	   -131.11779879	    351.04267682	   -309.16282678	      9.82062527	    -15.86791491
      2.43000000	     25.57498152	     35.56173004	     49.76485395	     77.97210138	    783.56426758	    -44.23455118	     13.40294301	     36.67364108	     29.99584253	     45.00000000	    -45.00000000	  -5121.62839856	  -1729.27055328	     20.78486459	   -158.90114642	   1801.56312880	   -190.98973662	     12.09350092	     11.84469489	    -14.46424506	    -45.00000000	    -33.96741212	     45.00000000	    -45.00000000	  -3862.49800205	  -1893.94992042	    136.09501181	   -131.27315693	    350.97276228	   -308.66676204	      9.80175154	    -15.89527867
